<svg xmlns="http://www.w3.org/2000/svg" xmlns:xlink="http://www.w3.org/1999/xlink" class="mdl-js" viewBox="0 0 216.37 54.02"><defs><linearGradient id="linear-gradient" x1="-5.99" x2="46.03" y1="67.96" y2="24.28" gradientTransform="rotate(-.21 -7349.688 1184.288)" gradientUnits="userSpaceOnUse"><stop offset="0" stop-color="#2f3291"/><stop offset=".11" stop-color="#32409a"/><stop offset=".32" stop-color="#3b65b3"/><stop offset=".6" stop-color="#49a0da"/><stop offset=".71" stop-color="#4eb7e9"/></linearGradient><linearGradient xlink:href="#linear-gradient" id="linear-gradient-2" x1="14.49" x2="66.69" y1="92.75" y2="48.92"/><linearGradient xlink:href="#linear-gradient" id="linear-gradient-3" x1="2.82" x2="55.22" y1="79.04" y2="35.05"/><linearGradient xlink:href="#linear-gradient" id="linear-gradient-4" x1="5.4" x2="57.67" y1="81.9" y2="38.02"/><linearGradient xlink:href="#linear-gradient" id="linear-gradient-5" x1="4.06" x2="56.46" y1="80.51" y2="36.52"/><linearGradient xlink:href="#linear-gradient" id="linear-gradient-6" x1="66.32" x2="135.81" y1="58.58" y2="28.85"/><linearGradient xlink:href="#linear-gradient" id="linear-gradient-7" x1="69.65" x2="139.14" y1="66.38" y2="36.65"/><linearGradient xlink:href="#linear-gradient" id="linear-gradient-8" x1="72.83" x2="142.32" y1="73.8" y2="44.07"/><style>.cls-1{fill:#939598}</style></defs><g id="Layer_2" data-name="Layer 2"><g id="Layer_1-2" data-name="Layer 1"><rect width="8.61" height="3.05" x="28.39" y="22.07" class="cls-1" rx="1.49" ry="1.49" transform="translate(-.09 .12)"/><rect width="8.61" height="3.05" x="28.41" y="26.64" class="cls-1" rx="1.49" ry="1.49" transform="rotate(-.21 32.69 27.344)"/><path d="m32 10.9-5.72-4.82a21.59 21.59 0 0 0-3.17 1.32l6.57 5.5Z" style="fill:url(#linear-gradient)"/><path d="m33.36 40.89 5.73 4.8a20.57 20.57 0 0 0 3.16-1.35l-6.52-5.46Z" style="fill:url(#linear-gradient-2)"/><path d="m32.14 35.89-7.52-6.27a5 5 0 0 1-1.86-3.71 4.74 4.74 0 0 1 1.7-3.63l8.17-6.92 2.37-2 7.16-6A21.37 21.37 0 0 0 39 6l-4.53 3.82-1.84 1.57-2.36 2-2.63 2.2L22.49 20a7.87 7.87 0 0 0-2.77 5.95 8.29 8.29 0 0 0 3 6.06l7.11 5.92Z" style="fill:url(#linear-gradient-3)"/><path d="m42.85 19.9-7.25-6-2.37 2 7.66 6.39a4.84 4.84 0 0 1 1.71 3.59 4.76 4.76 0 0 1-1.81 3.75l-8 6.81-2.36 2-7.09 6a20.36 20.36 0 0 0 3.18 1.29l4.16-3.54 4.48-3.81 2.34-2 5.3-4.48a8.28 8.28 0 0 0 2.9-6.08 7.88 7.88 0 0 0-2.85-5.92Z" style="fill:url(#linear-gradient-4)"/><path d="M43.26 2.24a26.55 26.55 0 0 0-3.2-1.18 26.06 26.06 0 0 0-14.85 0A24.9 24.9 0 0 0 22 2.3 25.88 25.88 0 0 0 6.83 26 26.53 26.53 0 0 0 11 40l-9.82 8.3a3.23 3.23 0 0 0-.39 4.56 3.24 3.24 0 0 0 4.56.38l9.87-8.34a25.83 25.83 0 0 0 7 4.6 27 27 0 0 0 3.19 1.18 26.1 26.1 0 0 0 14.86-.06 27 27 0 0 0 3.18-1.21 25.89 25.89 0 0 0-.15-47.19Zm-.8 44.05a21 21 0 0 1-3 1.19 22.78 22.78 0 0 1-6.65 1 22.41 22.41 0 0 1-6.64-1 21.88 21.88 0 0 1-3-1.16A22.64 22.64 0 0 1 23 5.45a24.74 24.74 0 0 1 3-1.19 22.76 22.76 0 0 1 6.64-1 22.36 22.36 0 0 1 6.68 1 22.63 22.63 0 0 1 3.16 42.06Z" style="fill:url(#linear-gradient-5)"/><path d="M136.18 35.88a3.31 3.31 0 0 0 3 1.67 2.15 2.15 0 0 0 2.35-1.89c0-2.83-6.09-.83-6.11-4.74 0-2 1.81-3 3.5-3a3.76 3.76 0 0 1 3.63 1.92l-1.19.72a2.53 2.53 0 0 0-2.43-1.44c-1 0-2.18.59-2.17 1.66 0 2.77 6.09.6 6.1 4.75 0 2.11-1.74 3.19-3.7 3.2a4.54 4.54 0 0 1-4.16-2.05ZM150.42 27.91a5.21 5.21 0 0 1 5.42 5.38 5.4 5.4 0 0 1-10.8 0 5.2 5.2 0 0 1 5.38-5.38Zm0 9.6a4 4 0 0 0 4.06-4.21 4.07 4.07 0 1 0-8.14 0 4 4 0 0 0 4.11 4.21ZM159.56 29.34h-2.13v-1.2h2.14v-3.35c0-2.65 1.75-3.45 3.06-3.46a3.86 3.86 0 0 1 1.53.26l-.26 1.16a2.57 2.57 0 0 0-1.2-.22c-1.22 0-1.8.9-1.79 2.74v2.87h2.4v1.2h-2.4v9.07h-1.34ZM170.41 29.3h-2.94v6.69a1.32 1.32 0 0 0 1.43 1.44 4 4 0 0 0 1.51-.37l.11 1.2a6.15 6.15 0 0 1-1.73.37 2.41 2.41 0 0 1-2.63-2.63v-6.69h-2.22v-1.2h2.23v-3h1.34v2.95h2.93ZM171.34 28.1h1.46l2.53 8.59 2.84-8.61h1.26l3.08 8.59 2.4-8.61h1.33l-3 10.28H182l-3.1-8.39h-.05l-2.85 8.4h-1.4ZM196.43 34a31.79 31.79 0 0 0 .22 4.31h-1.25a9.8 9.8 0 0 1-.13-1.66h-.05a3.73 3.73 0 0 1-3.59 1.94c-1.76 0-3.63-.85-3.64-3 0-3.13 3.66-3.46 5.68-3.47h1.56v-.62c0-1.78-1.25-2.49-2.9-2.48a4.62 4.62 0 0 0-3.13 1.16l-.78-.9a6 6 0 0 1 3.91-1.46c2.49 0 4.09 1.09 4.1 3.69Zm-2.67-.84c-2.22 0-4.44.57-4.43 2.33a2.11 2.11 0 0 0 2.34 1.9c2.84 0 3.57-1.83 3.56-3.55v-.68ZM200 30.89c0-.76-.12-2.36-.12-2.89h1.33c0 .76.05 1.6.1 1.8a3.65 3.65 0 0 1 3.26-2.08 3.06 3.06 0 0 1 .78.11l-.16 1.31a1.48 1.48 0 0 0-.51-.08c-2.31 0-3.35 1.61-3.34 3.61v5.6H200ZM216.07 36.27a5.33 5.33 0 0 1-9.66-3.19 5.1 5.1 0 0 1 5.12-5.39 4.66 4.66 0 0 1 4.84 4.78v.93h-8.62a3.83 3.83 0 0 0 3.9 3.85 4.12 4.12 0 0 0 3.44-1.84Zm-1-4.06a3.45 3.45 0 0 0-3.57-3.32 3.81 3.81 0 0 0-3.72 3.35Z" class="cls-1"/><path d="M66.05 14h5.47l.07 19.76h10.13v5.05H66.13Z" style="fill:url(#linear-gradient-6)"/><path d="M84.66 13.88h5.46v9.25h10.61v-9.25h5.47l.09 24.81h-5.47V27.96H90.21v10.72h-5.47Z" style="fill:url(#linear-gradient-7)"/><path d="M108.8 13.79h6.24L121.23 30h.07l6.17-16.28h5.86l-10.15 24.82h-4.37Z" style="fill:url(#linear-gradient-8)"/></g></g></svg>